<?xml version="1.0" encoding="UTF-8"?>
<svg version="1.1" xmlns="http://www.w3.org/2000/svg" width="512" height="512">
<path d="M0 0 C16.25516357 15.28701804 27.15847286 34.35479893 33.63964844 55.54199219 C33.95675781 56.53199219 34.27386719 57.52199219 34.60058594 58.54199219 C43.79205513 90.57562739 37.4145449 124.85893815 21.63964844 153.54199219 C5.99651423 181.6403233 -20.97456543 201.22526088 -51.36035156 210.54199219 C-52.82794922 211.01765625 -52.82794922 211.01765625 -54.32519531 211.50292969 C-86.33377295 220.77944717 -120.71787131 214.29457417 -149.36035156 198.54199219 C-177.44603134 182.90590133 -197.06558693 155.92690804 -206.36035156 125.54199219 C-206.67746094 124.55199219 -206.99457031 123.56199219 -207.32128906 122.54199219 C-216.51275825 90.50835698 -210.13524802 56.22504622 -194.36035156 27.54199219 C-178.71721735 -0.55633893 -151.74613769 -20.1412765 -121.36035156 -29.45800781 C-120.38195312 -29.77511719 -119.40355469 -30.09222656 -118.39550781 -30.41894531 C-76.6420955 -42.5196473 -31.41561692 -28.64521769 0 0 Z " fill="#000000" transform="translate(342.3603515625,165.4580078125)"/>
<path d="M0 0 C1.04188477 0.21962402 2.08376953 0.43924805 3.15722656 0.66552734 C24.47961797 5.31642871 44.29257366 12.7197666 64 22 C64 25.96995156 62.74368263 26.58497138 60 29.375 C54.66461785 35.09087691 50.88378573 41.24835069 47 48 C43.70241439 47.41092587 40.72754563 46.61103081 37.62109375 45.36328125 C36.79295166 45.03618164 35.96480957 44.70908203 35.11157227 44.37207031 C34.22912842 44.02241211 33.34668457 43.67275391 32.4375 43.3125 C-15.77958994 24.68022117 -67.32540788 22.0249164 -117 37 C-118.25296875 37.36738281 -119.5059375 37.73476563 -120.796875 38.11328125 C-176.30529173 55.44477188 -222.5371594 96.25618648 -250 147 C-250.37721191 147.69689941 -250.75442383 148.39379883 -251.14306641 149.11181641 C-265.66594615 176.52713556 -274.94019578 209.06742062 -275.23828125 240.15234375 C-275.24802979 241.00179565 -275.25777832 241.85124756 -275.26782227 242.72644043 C-275.44196734 261.83973292 -275.17649107 280.25348259 -271 299 C-270.81276367 299.8544873 -270.62552734 300.70897461 -270.43261719 301.58935547 C-269.17917092 307.13244555 -267.68020128 312.57201322 -266 318 C-265.75942871 318.7847168 -265.51885742 319.56943359 -265.27099609 320.37792969 C-254.71808591 354.10652365 -236.12295146 384.14963014 -211.54541016 409.40771484 C-210.2180971 410.77528763 -208.90983314 412.16130336 -207.60546875 413.55078125 C-201.32712101 420.10868436 -194.24313982 425.56278005 -187 431 C-186.14680176 431.64437012 -186.14680176 431.64437012 -185.27636719 432.30175781 C-137.99784988 467.78113042 -78.042848 482.72976402 -19.5625 474.75 C28.26651703 467.63687601 71.77255852 446.24737114 106.40771484 412.54541016 C107.77528763 411.2180971 109.16130336 409.90983314 110.55078125 408.60546875 C117.10868436 402.32712101 122.56278005 395.24313982 128 388 C128.64437012 387.14680176 128.64437012 387.14680176 129.30175781 386.27636719 C150.81878961 357.60355577 165.73824191 323.54920004 171 288 C171.25837646 286.42351685 171.25837646 286.42351685 171.52197266 284.81518555 C173.15024314 274.08933432 173.39800536 263.51888608 173.375 252.6875 C173.37468277 251.30544876 173.37468277 251.30544876 173.37435913 249.89547729 C173.33944701 234.60843462 172.3348073 219.96855187 169 205 C168.81276367 204.1455127 168.62552734 203.29102539 168.43261719 202.41064453 C165.086749 187.61427926 160.44442494 172.61808171 153.65649414 159.02978516 C152.85839469 156.56217681 153.01142185 155.38143208 154 153 C156.58984375 151.17578125 156.58984375 151.17578125 159.9375 149.3125 C166.36171332 145.60941327 171.68180684 141.1861387 177 136 C194.31759219 151.56131963 199.50628607 191.10120463 203 213 C203.18618896 214.15717529 203.37237793 215.31435059 203.56420898 216.5065918 C205.24034061 228.18436254 205.35716833 239.78009287 205.3125 251.5625 C205.31034485 252.58323608 205.3081897 253.60397217 205.30596924 254.65563965 C205.25630099 269.29829998 204.94579688 283.60988899 202 298 C201.80664062 298.99660645 201.61328125 299.99321289 201.4140625 301.02001953 C193.29528127 342.10882055 175.92584885 379.20299494 150 412 C149.18789063 413.03769531 148.37578125 414.07539063 147.5390625 415.14453125 C134.87407313 430.70608759 120.32374403 445.30214417 104 457 C102.65474408 457.98930622 101.30970229 458.97890366 99.96484375 459.96875 C68.65806909 482.76879792 33.09987825 497.98828684 -5 505 C-5.80066895 505.16081055 -6.60133789 505.32162109 -7.42626953 505.48730469 C-35.49327044 510.977321 -69.00184244 510.74943715 -97 505 C-98.01255859 504.80132324 -99.02511719 504.60264648 -100.06835938 504.39794922 C-141.16100049 496.18065205 -178.09636417 478.73982803 -211 453 C-211.53915039 452.58089355 -212.07830078 452.16178711 -212.63378906 451.72998047 C-228.87386305 438.96696125 -243.94462343 423.77573511 -256 407 C-256.8637527 405.83011544 -257.72835469 404.6608575 -258.59375 403.4921875 C-273.73707742 382.8661757 -285.8192165 360.25702873 -294 336 C-294.41306396 334.77748535 -294.41306396 334.77748535 -294.83447266 333.53027344 C-298.07255506 323.75942323 -300.60485473 313.87781263 -302.75 303.8125 C-302.94875732 302.88783936 -303.14751465 301.96317871 -303.35229492 301.01049805 C-306.64499027 284.80388823 -307.37530278 268.8696298 -307.3125 252.375 C-307.31034485 251.35676147 -307.3081897 250.33852295 -307.30596924 249.28942871 C-307.25626609 234.6652116 -306.94207988 220.37195362 -304 206 C-303.70996094 204.50509033 -303.70996094 204.50509033 -303.4140625 202.97998047 C-295.78540781 164.37168872 -280.07257683 128.21833121 -256 97 C-255.03513672 95.74703125 -255.03513672 95.74703125 -254.05078125 94.46875 C-239.96644299 76.53819756 -223.6231663 59.25059511 -205 46 C-204.38237793 45.55398437 -203.76475586 45.10796875 -203.12841797 44.6484375 C-171.2928961 21.75691487 -135.61290977 6.10612895 -97 -1 C-96.19933105 -1.16081055 -95.39866211 -1.32162109 -94.57373047 -1.48730469 C-64.54717874 -7.36061688 -29.84784176 -6.3101142 0 0 Z " fill="#000000" transform="translate(307,4)"/>
<path d="M0 0 C11.39394101 8.54545576 18.87734008 19.65627948 21.40625 33.8046875 C23.19150713 50.34433427 18.66935521 63.42882291 9.21875 76.9296875 C1.53090451 85.6031542 -9.90184943 92.11034598 -21.56005859 92.94555664 C-38.25234816 93.67761023 -52.29550563 91.19187075 -65.06640625 79.55078125 C-75.14050194 69.073049 -80.00499387 56.84193633 -79.90625 42.4296875 C-79.90206055 41.59332764 -79.89787109 40.75696777 -79.89355469 39.89526367 C-79.78165316 33.77936915 -79.07704485 28.44853943 -76.59375 22.8046875 C-76.32691406 22.13824219 -76.06007813 21.47179687 -75.78515625 20.78515625 C-69.720351 7.11912841 -58.86125466 -0.80440942 -45.35546875 -6.25 C-30.40373092 -11.36785086 -13.08186138 -8.53718876 0 0 Z " fill="#000000" transform="translate(455.59375,43.1953125)"/>
</svg>
