<?xml version="1.0" encoding="UTF-8"?>
<svg version="1.1" xmlns="http://www.w3.org/2000/svg" width="512" height="512">
<path d="M0 0 C0.94488785 -0.00705963 1.8897757 -0.01411926 2.86329651 -0.02139282 C41.91562467 -0.247035 41.91562467 -0.247035 58.76953125 3.203125 C59.7661377 3.39648438 60.76274414 3.58984375 61.78955078 3.7890625 C83.82960885 8.14398173 105.2416244 14.7459061 125.18676758 25.19238281 C125.9836499 25.60069336 126.78053223 26.00900391 127.6015625 26.4296875 C128.63373901 26.98003662 128.63373901 26.98003662 129.68676758 27.54150391 C133.33220964 28.69953321 136.00129138 27.54896174 139.390625 26.02319336 C140.32003906 25.53471924 141.24945313 25.04624512 142.20703125 24.54296875 C143.25632812 24.00027344 144.305625 23.45757813 145.38671875 22.8984375 C146.50304687 22.31835938 147.619375 21.73828125 148.76953125 21.140625 C175.31298745 7.63242958 208.84275092 -6.7261314 239.14453125 1.765625 C251.42424792 6.41950698 259.97050249 14.88563345 265.7265625 26.515625 C272.58838004 44.19701253 269.26302089 64.61071243 263.76953125 82.203125 C263.52847656 82.97897949 263.28742188 83.75483398 263.0390625 84.55419922 C247.34028244 133.48829343 215.119516 178.13096643 183.76953125 218.203125 C182.8773371 219.35395967 181.98541762 220.50500732 181.09375 221.65625 C175.99982775 228.21022517 170.79129944 234.64185376 165.38500977 240.94140625 C164.1723628 242.35559301 162.97049796 243.77900569 161.76953125 245.203125 C161.13015625 245.86054688 160.49078125 246.51796875 159.83203125 247.1953125 C158.45064382 249.27414853 158.45064382 249.27414853 159.44921875 252.109375 C159.88492187 253.1303125 160.320625 254.15125 160.76953125 255.203125 C166.42349108 269.23485013 167.37315477 286.07500527 162.0234375 300.390625 C154.58369864 317.07788973 143.71710785 328.3593479 127.078125 335.94140625 C119.6382004 338.77859119 113.04916971 339.58087181 105.14453125 339.578125 C104.17394775 339.58811523 103.20336426 339.59810547 102.20336914 339.60839844 C96.17047095 339.56227306 91.76679689 338.74207239 86.20703125 336.453125 C83.00322199 335.20592769 83.00322199 335.20592769 79.76953125 335.203125 C75.18267832 337.92793406 71.9055663 341.39476302 68.40039062 345.37597656 C65.71510568 348.38446047 62.82461997 351.18250049 59.95703125 354.015625 C58.86556415 355.11556672 57.77440651 356.21581562 56.68359375 357.31640625 C53.8957674 360.10334306 50.99671639 362.7140081 47.9921875 365.265625 C44.84955349 368.00507398 41.81602688 370.85762869 38.76953125 373.703125 C33.84337155 378.29430327 28.88422964 382.82174997 23.76953125 387.203125 C22.78082031 388.0590625 21.79210937 388.915 20.7734375 389.796875 C11.56462414 397.7526793 2.20313244 405.5157436 -7.23046875 413.203125 C-8.16777832 413.96858643 -8.16777832 413.96858643 -9.12402344 414.74951172 C-29.33704945 431.22079272 -50.37038643 446.98157208 -72.23046875 461.203125 C-73.45347847 462.01509285 -74.67611127 462.82762861 -75.8984375 463.640625 C-112.98150058 488.15554133 -163.41643897 520.60764173 -210.34375 511.5546875 C-221.90647786 508.31435418 -231.52020194 501.05774545 -237.69921875 490.75390625 C-247.08552239 472.9363008 -244.62172374 451.35250458 -239 432.66748047 C-238.74605469 431.85424316 -238.49210938 431.04100586 -238.23046875 430.203125 C-237.98941406 429.42727051 -237.74835938 428.65141602 -237.5 427.85205078 C-232.49695362 412.25723757 -225.6191424 396.15344082 -216.8046875 382.34375 C-214.90602229 378.55584223 -214.94912887 377.19697874 -216.23046875 373.203125 C-217.34187099 370.716646 -218.49701298 368.31375738 -219.73046875 365.890625 C-234.18076189 336.18724466 -243.26808119 302.12838157 -243.43359375 268.97265625 C-243.4441832 267.55532448 -243.4441832 267.55532448 -243.45498657 266.10935974 C-243.68062875 227.05703158 -243.68062875 227.05703158 -240.23046875 210.203125 C-239.94042969 208.70821533 -239.94042969 208.70821533 -239.64453125 207.18310547 C-230.21384757 159.45482289 -208.24432101 115.15908049 -174.23046875 80.203125 C-173.53791992 79.48479492 -172.84537109 78.76646484 -172.13183594 78.02636719 C-162.39274534 67.95866957 -152.64325716 58.35375276 -141.23046875 50.203125 C-140.61139648 49.75565918 -139.99232422 49.30819336 -139.35449219 48.84716797 C-99.20200514 19.97811463 -49.94969891 0.24934766 0 0 Z M-140.23046875 104.203125 C-140.88917969 104.81929688 -141.54789063 105.43546875 -142.2265625 106.0703125 C-178.62688617 141.20965498 -201.62579282 195.42603876 -202.56640625 245.7578125 C-202.60726603 249.19817233 -202.61367001 252.63755616 -202.60546875 256.078125 C-202.60459259 256.97942139 -202.60371643 257.88071777 -202.60281372 258.80932617 C-202.55558594 273.58361463 -201.66458763 287.78031245 -198.23046875 302.203125 C-197.98377441 303.24307617 -197.73708008 304.28302734 -197.48291016 305.35449219 C-190.31584313 334.61231645 -177.65856712 362.29497005 -159.23046875 386.203125 C-158.07611328 387.70359375 -158.07611328 387.70359375 -156.8984375 389.234375 C-145.05902446 404.08163893 -131.70122878 417.41936883 -116.66796875 429.015625 C-115.98895508 429.55002197 -115.30994141 430.08441895 -114.61035156 430.63500977 C-113.64693848 431.35901978 -113.64693848 431.35901978 -112.6640625 432.09765625 C-111.8141272 432.74504761 -111.8141272 432.74504761 -110.94702148 433.40551758 C-109.23821573 434.38399191 -109.23821573 434.38399191 -107.22607422 433.95336914 C-103.87357 432.69300146 -100.92881353 430.73870064 -97.91796875 428.828125 C-97.2101123 428.38186768 -96.50225586 427.93561035 -95.77294922 427.47583008 C-89.03191396 423.17101546 -82.62568854 418.47221503 -76.22705078 413.68017578 C-74.11859772 412.12036397 -71.98908214 410.5939311 -69.8515625 409.07421875 C-60.99214521 402.77264097 -52.41961919 396.24487721 -44.03515625 389.32421875 C-40.44365584 386.36109411 -36.78404787 383.49435745 -33.10546875 380.640625 C-26.55423934 375.53462865 -20.25555191 370.16386913 -13.98486328 364.71923828 C-12.22990134 363.20263465 -10.46466765 361.69899508 -8.6953125 360.19921875 C-1.72420682 354.28399088 5.07724608 348.22509637 11.765625 341.9921875 C14.34213938 339.59176875 16.95339861 337.23401369 19.58203125 334.890625 C26.13290529 329.01410564 32.54341432 322.98888375 38.9296875 316.93457031 C40.54916068 315.41051195 42.18543727 313.90864612 43.83203125 312.4140625 C45.06953125 311.25777344 45.06953125 311.25777344 46.33203125 310.078125 C47.38583984 309.11519531 47.38583984 309.11519531 48.4609375 308.1328125 C50.03024014 306.24961281 50.03024014 306.24961281 49.58203125 303.73828125 C49.08224665 302.17885718 48.56405375 300.6250199 48.015625 299.08203125 C42.75329854 284.00686415 44.6675781 266.61661289 51.0546875 252.328125 C58.50312096 237.38976262 70.45894901 228.14134148 85.76953125 222.203125 C92.19526261 220.20520853 98.06366191 219.89830863 104.76953125 219.953125 C105.71570313 219.94539062 106.661875 219.93765625 107.63671875 219.9296875 C111.99080761 219.94174869 115.937618 220.10915503 120.14453125 221.28125 C124.56806803 222.43340207 124.56806803 222.43340207 128.76953125 221.203125 C130.6369818 219.21297337 132.18164136 217.33457973 133.76953125 215.140625 C134.74048763 213.85028163 135.71321391 212.56126859 136.6875 211.2734375 C137.44426025 210.26458496 137.44426025 210.26458496 138.21630859 209.23535156 C140.23770249 206.59057275 142.34914028 204.02781343 144.47094727 201.46337891 C160.52912555 182.04950614 174.91728908 161.22983523 188.76953125 140.203125 C189.42953125 139.213125 190.08953125 138.223125 190.76953125 137.203125 C189.74370814 123.31054919 164.8766599 102.45782443 155.1640625 93.91015625 C81.78149651 32.6676898 -17.42760096 23.96366127 -140.23046875 104.203125 Z M181.0078125 51.30078125 C179.92560425 51.74176147 179.92560425 51.74176147 178.8215332 52.19165039 C176.57626316 53.29839088 174.72447471 54.64703732 172.76953125 56.203125 C173.82914062 57.04617187 173.82914062 57.04617187 174.91015625 57.90625 C182.38552156 63.9826292 189.31865705 70.53244265 196.14453125 77.328125 C196.98790039 78.1624707 197.83126953 78.99681641 198.70019531 79.85644531 C203.83117038 85.01178592 208.45905818 90.34349297 212.76953125 96.203125 C214.88570389 93.54790254 216.40143112 91.07498485 217.671875 87.9296875 C218.0030835 87.11161621 218.33429199 86.29354492 218.67553711 85.45068359 C219.01593018 84.58523926 219.35632324 83.71979492 219.70703125 82.828125 C220.05967041 81.93561035 220.41230957 81.0430957 220.77563477 80.12353516 C228.33656015 61.05520902 228.33656015 61.05520902 226.76953125 41.203125 C210.07085814 40.3504268 196.31081943 45.06122106 181.0078125 51.30078125 Z M87.76953125 268.765625 C84.85564243 274.00864263 84.81342843 279.38030206 85.76953125 285.203125 C87.72517799 290.64843496 91.36251858 294.55277202 96.3984375 297.3515625 C101.87205308 299.31737502 107.66700942 299.31737502 113.140625 297.3515625 C118.17654392 294.55277202 121.81388451 290.64843496 123.76953125 285.203125 C124.72563407 279.38030206 124.68342007 274.00864263 121.76953125 268.765625 C118.06424121 263.8217979 114.03685754 260.73961734 107.8671875 259.7265625 C99.01973408 259.30259878 93.11116948 261.63848095 87.76953125 268.765625 Z M-188.23046875 416.203125 C-198.66695744 438.71419949 -198.66695744 438.71419949 -202.35546875 462.953125 C-202.35933594 463.63761719 -202.36320312 464.32210937 -202.3671875 465.02734375 C-202.65564667 468.40030274 -202.65564667 468.40030274 -201.23046875 471.203125 C-184.71213766 472.5834239 -170.53233094 467.24740676 -155.46875 461.10546875 C-154.74727783 460.81148193 -154.02580566 460.51749512 -153.2824707 460.21459961 C-151.03720066 459.10785912 -149.18541221 457.75921268 -147.23046875 456.203125 C-147.936875 455.64109375 -148.64328125 455.0790625 -149.37109375 454.5 C-156.84645906 448.4236208 -163.77959455 441.87380735 -170.60546875 435.078125 C-171.44883789 434.2437793 -172.29220703 433.40943359 -173.16113281 432.54980469 C-177.80533388 427.88354963 -182.02653541 423.12227592 -185.93994141 417.82470703 C-186.36581543 417.28958496 -186.79168945 416.75446289 -187.23046875 416.203125 C-187.56046875 416.203125 -187.89046875 416.203125 -188.23046875 416.203125 Z " fill="#000000" transform="translate(243.23046875,-0.203125)"/>
<path d="M0 0 C0.66 0 1.32 0 2 0 C5.76943137 14.24556085 9.12338069 28.37427166 11 43 C11.08732895 43.66720566 11.1746579 44.33441132 11.26463318 45.02183533 C11.96087492 50.7382048 12.17456148 56.37742627 12.203125 62.1328125 C12.21018463 63.0791153 12.21724426 64.02541809 12.22451782 65.00039673 C12.45028019 104.14550628 12.45028019 104.14550628 9 121 C8.80664062 121.99660645 8.61328125 122.99321289 8.4140625 124.02001953 C0.29528127 165.10882055 -17.07415115 202.20299494 -43 235 C-43.81210937 236.03769531 -44.62421875 237.07539063 -45.4609375 238.14453125 C-58.13011611 253.71123494 -72.68798964 268.27786525 -89 280 C-90.16988456 280.8637527 -91.3391425 281.72835469 -92.5078125 282.59375 C-113.1338243 297.73707742 -135.74297127 309.8192165 -160 318 C-161.22251465 318.41306396 -161.22251465 318.41306396 -162.46972656 318.83447266 C-172.24057677 322.07255506 -182.12218737 324.60485473 -192.1875 326.75 C-193.11216064 326.94875732 -194.03682129 327.14751465 -194.98950195 327.35229492 C-211.00635477 330.60643736 -226.76094432 331.37622854 -243.0625 331.3125 C-244.05511841 331.31034485 -245.04773682 331.3081897 -246.07043457 331.30596924 C-270.02280426 331.22255686 -291.79170188 328.04372794 -315 322 C-316.33290197 321.66494592 -317.66607811 321.3309702 -319 321 C-317.75467725 317.26403175 -316.54920438 316.7716049 -313.28515625 314.6640625 C-312.29668701 314.01767822 -311.30821777 313.37129395 -310.28979492 312.70532227 C-309.2247876 312.01881592 -308.15978027 311.33230957 -307.0625 310.625 C-298.35370604 304.93081358 -289.80131334 299.10304758 -281.44750977 292.89892578 C-280.76744873 292.39731934 -280.0873877 291.89571289 -279.38671875 291.37890625 C-278.50826294 290.72257202 -278.50826294 290.72257202 -277.61206055 290.05297852 C-274.09611973 287.75640836 -271.34528401 287.99993576 -267.3203125 288.375 C-266.17481934 288.47409668 -265.02932617 288.57319336 -263.84912109 288.67529297 C-262.62016113 288.78244629 -261.39120117 288.88959961 -260.125 289 C-208.10987078 293.03069267 -155.39257152 278.13723449 -114 246 C-112.99066406 245.22011719 -111.98132813 244.44023437 -110.94140625 243.63671875 C-70.40576046 211.26569948 -43.75988069 166.68401222 -33 116 C-32.82065918 115.18789063 -32.64131836 114.37578125 -32.45654297 113.5390625 C-29.01614114 97.30391903 -29.65877 80.59342813 -29.796875 64.0859375 C-29.79964447 63.2752179 -29.80241394 62.46449829 -29.80526733 61.62921143 C-29.85084199 57.29294822 -30.27431307 53.36375553 -31.140625 49.1015625 C-31.65282518 44.23331559 -29.69889451 41.49346811 -26.75 37.83203125 C-25.33454797 36.14847153 -23.90504966 34.47753669 -22.47460938 32.80670166 C-19.92059262 29.67750257 -17.72409249 26.31691018 -15.5 22.94921875 C-15.04729736 22.27158478 -14.59459473 21.59395081 -14.12817383 20.89578247 C-12.26930908 18.1122324 -10.41988896 15.32250839 -8.57373047 12.53051758 C-7.2007527 10.45784468 -5.81963713 8.39079052 -4.4375 6.32421875 C-4.01984375 5.6869133 -3.6021875 5.04960785 -3.171875 4.39299011 C-2.1660321 2.89285406 -1.0894508 1.44056416 0 0 Z " fill="#000000" transform="translate(500,181)"/>
</svg>
